<?xml version="1.0" standalone="no"?>
<!DOCTYPE svg PUBLIC "-//W3C//DTD SVG 20010904//EN"
 "http://www.w3.org/TR/2001/REC-SVG-20010904/DTD/svg10.dtd">
<svg version="1.0" xmlns="http://www.w3.org/2000/svg"
 width="884.000000pt" height="376.000000pt" viewBox="0 0 884.000000 376.000000"
 preserveAspectRatio="xMidYMid meet">

<g transform="translate(0.000000,376.000000) scale(0.100000,-0.100000)"
fill="#000000" stroke="none">
<path d="M3600 3373 c-8 -3 -18 -11 -22 -17 -4 -6 -8 -235 -8 -508 l0 -498
-100 0 -100 0 0 -39 c0 -77 -90 -71 1080 -71 1170 0 1080 -6 1080 71 l0 39
-100 0 -100 0 0 498 c0 295 -4 503 -10 512 -8 13 -116 15 -857 17 -466 1 -855
-1 -863 -4z m860 -38 c0 -8 -4 -15 -9 -15 -13 0 -22 16 -14 24 11 11 23 6 23
-9z m800 -480 l0 -435 -810 0 -810 0 0 435 0 435 810 0 810 0 0 -435z m-690
-560 c0 -13 -17 -15 -117 -13 -82 2 -118 7 -121 16 -3 9 25 12 117 12 102 0
121 -2 121 -15z"/>
<path d="M3700 3225 c0 -8 7 -15 15 -15 8 0 15 7 15 15 0 8 -7 15 -15 15 -8 0
-15 -7 -15 -15z"/>
<path d="M3750 3225 c0 -11 11 -15 40 -15 29 0 40 4 40 15 0 11 -11 15 -40 15
-29 0 -40 -4 -40 -15z"/>
<path d="M3700 3175 c0 -8 7 -15 15 -15 8 0 15 7 15 15 0 8 -7 15 -15 15 -8 0
-15 -7 -15 -15z"/>
<path d="M3750 3175 c0 -12 18 -15 105 -15 87 0 105 3 105 15 0 12 -18 15
-105 15 -87 0 -105 -3 -105 -15z"/>
<path d="M3700 3130 c0 -5 7 -10 15 -10 8 0 15 5 15 10 0 6 -7 10 -15 10 -8 0
-15 -4 -15 -10z"/>
<path d="M3750 3130 c0 -6 53 -10 140 -10 87 0 140 4 140 10 0 6 -53 10 -140
10 -87 0 -140 -4 -140 -10z"/>
<path d="M3700 3085 c0 -8 7 -15 15 -15 8 0 15 7 15 15 0 8 -7 15 -15 15 -8 0
-15 -7 -15 -15z"/>
<path d="M3750 3085 c0 -12 18 -15 105 -15 87 0 105 3 105 15 0 12 -18 15
-105 15 -87 0 -105 -3 -105 -15z"/>
<path d="M3700 3035 c0 -8 7 -15 15 -15 8 0 15 7 15 15 0 8 -7 15 -15 15 -8 0
-15 -7 -15 -15z"/>
<path d="M3750 3035 c0 -12 18 -15 105 -15 87 0 105 3 105 15 0 12 -18 15
-105 15 -87 0 -105 -3 -105 -15z"/>
<path d="M3700 2985 c0 -8 7 -15 15 -15 8 0 15 7 15 15 0 8 -7 15 -15 15 -8 0
-15 -7 -15 -15z"/>
<path d="M3750 2985 c0 -11 11 -15 40 -15 29 0 40 4 40 15 0 11 -11 15 -40 15
-29 0 -40 -4 -40 -15z"/>
<path d="M3700 2935 c0 -8 7 -15 15 -15 8 0 15 7 15 15 0 8 -7 15 -15 15 -8 0
-15 -7 -15 -15z"/>
<path d="M3750 2935 c0 -12 14 -15 70 -15 56 0 70 3 70 15 0 12 -14 15 -70 15
-56 0 -70 -3 -70 -15z"/>
<path d="M3700 2885 c0 -8 7 -15 15 -15 8 0 15 7 15 15 0 8 -7 15 -15 15 -8 0
-15 -7 -15 -15z"/>
<path d="M3750 2885 c0 -11 11 -15 40 -15 29 0 40 4 40 15 0 11 -11 15 -40 15
-29 0 -40 -4 -40 -15z"/>
<path d="M3850 2885 c0 -13 24 -15 155 -15 131 0 155 2 155 15 0 13 -24 15
-155 15 -131 0 -155 -2 -155 -15z"/>
<path d="M4200 2885 c0 -11 11 -15 40 -15 29 0 40 4 40 15 0 11 -11 15 -40 15
-29 0 -40 -4 -40 -15z"/>
<path d="M3700 2835 c0 -8 7 -15 15 -15 8 0 15 7 15 15 0 8 -7 15 -15 15 -8 0
-15 -7 -15 -15z"/>
<path d="M3750 2835 c0 -11 11 -15 40 -15 29 0 40 4 40 15 0 11 -11 15 -40 15
-29 0 -40 -4 -40 -15z"/>
<path d="M3850 2835 c0 -13 33 -15 240 -15 207 0 240 2 240 15 0 13 -33 15
-240 15 -207 0 -240 -2 -240 -15z"/>
<path d="M4370 2835 c0 -11 11 -15 40 -15 29 0 40 4 40 15 0 11 -11 15 -40 15
-29 0 -40 -4 -40 -15z"/>
<path d="M3700 2785 c0 -8 7 -15 15 -15 8 0 15 7 15 15 0 8 -7 15 -15 15 -8 0
-15 -7 -15 -15z"/>
<path d="M3750 2785 c0 -11 11 -15 40 -15 29 0 40 4 40 15 0 11 -11 15 -40 15
-29 0 -40 -4 -40 -15z"/>
<path d="M3850 2785 c0 -13 44 -15 335 -15 291 0 335 2 335 15 0 13 -44 15
-335 15 -291 0 -335 -2 -335 -15z"/>
<path d="M4540 2785 c0 -11 11 -15 40 -15 29 0 40 4 40 15 0 11 -11 15 -40 15
-29 0 -40 -4 -40 -15z"/>
<path d="M3700 2735 c0 -8 7 -15 15 -15 8 0 15 7 15 15 0 8 -7 15 -15 15 -8 0
-15 -7 -15 -15z"/>
<path d="M3750 2735 c0 -13 43 -15 330 -15 287 0 330 2 330 15 0 13 -43 15
-330 15 -287 0 -330 -2 -330 -15z"/>
<path d="M3700 2685 c0 -8 7 -15 15 -15 8 0 15 7 15 15 0 8 -7 15 -15 15 -8 0
-15 -7 -15 -15z"/>
<path d="M3750 2685 c0 -11 11 -15 40 -15 29 0 40 4 40 15 0 11 -11 15 -40 15
-29 0 -40 -4 -40 -15z"/>
<path d="M3850 2685 c0 -13 38 -15 280 -15 242 0 280 2 280 15 0 13 -38 15
-280 15 -242 0 -280 -2 -280 -15z"/>
<path d="M3700 2635 c0 -8 7 -15 15 -15 8 0 15 7 15 15 0 8 -7 15 -15 15 -8 0
-15 -7 -15 -15z"/>
<path d="M3750 2635 c0 -13 29 -15 205 -15 176 0 205 2 205 15 0 13 -29 15
-205 15 -176 0 -205 -2 -205 -15z"/>
<path d="M3700 2585 c0 -8 7 -15 15 -15 8 0 15 7 15 15 0 8 -7 15 -15 15 -8 0
-15 -7 -15 -15z"/>
<path d="M3750 2585 c0 -13 26 -15 170 -15 144 0 170 2 170 15 0 13 -26 15
-170 15 -144 0 -170 -2 -170 -15z"/>
<path d="M4130 2585 c0 -11 11 -15 40 -15 29 0 40 4 40 15 0 11 -11 15 -40 15
-29 0 -40 -4 -40 -15z"/>
<path d="M3700 2535 c0 -8 7 -15 15 -15 8 0 15 7 15 15 0 8 -7 15 -15 15 -8 0
-15 -7 -15 -15z"/>
<path d="M3750 2535 c0 -12 16 -15 85 -15 69 0 85 3 85 15 0 12 -16 15 -85 15
-69 0 -85 -3 -85 -15z"/>
<path d="M3700 2485 c0 -8 7 -15 15 -15 8 0 15 7 15 15 0 8 -7 15 -15 15 -8 0
-15 -7 -15 -15z"/>
<path d="M3750 2485 c0 -12 14 -15 70 -15 56 0 70 3 70 15 0 12 -14 15 -70 15
-56 0 -70 -3 -70 -15z"/>
<path d="M5850 1845 l0 -95 1425 0 1425 0 0 95 0 95 -1425 0 -1425 0 0 -95z"/>
<path d="M200 1825 l0 -95 1425 0 1425 0 0 95 0 95 -1425 0 -1425 0 0 -95z"/>
<path d="M4910 1261 c0 -5 -22 -191 -50 -414 -27 -223 -50 -412 -50 -421 0
-14 14 -16 89 -16 l88 0 12 108 c17 146 19 154 44 150 15 -2 30 -29 64 -118
25 -63 52 -121 61 -127 15 -12 192 -19 192 -8 0 13 -133 316 -142 321 -5 4 6
23 25 43 44 45 177 213 177 224 0 10 -154 9 -183 -2 -13 -5 -53 -49 -89 -98
-69 -93 -94 -120 -105 -109 -6 5 18 239 44 434 l6 42 -92 0 c-50 0 -91 -4 -91
-9z"/>
<path d="M1856 853 c-26 -219 -50 -408 -53 -420 -5 -23 -4 -23 91 -23 111 0
99 -15 116 140 17 150 11 140 78 140 125 0 225 32 290 94 54 50 75 100 80 194
5 98 -11 152 -61 200 -57 55 -101 65 -307 70 l-186 4 -48 -399z m385 218 c51
-51 37 -160 -27 -210 -21 -17 -41 -21 -95 -21 -61 0 -69 2 -69 19 0 20 16 150
26 209 l5 32 65 0 c59 0 68 -3 95 -29z"/>
<path d="M3156 1238 c-6 -19 -96 -779 -96 -805 0 -22 3 -23 93 -23 l94 0 12
113 c21 181 13 167 85 167 71 0 181 22 224 44 88 46 144 147 146 265 1 64 -3
85 -25 126 -30 60 -89 100 -168 115 -80 15 -361 13 -365 -2z m335 -167 c24
-25 29 -37 29 -81 0 -66 -21 -115 -59 -134 -38 -20 -161 -22 -161 -3 0 6 7 59
15 117 8 58 15 111 15 118 0 8 20 12 66 12 59 0 68 -3 95 -29z"/>
<path d="M3980 1004 c-179 -49 -289 -196 -292 -387 0 -63 4 -86 24 -125 55
-110 190 -120 286 -21 l32 33 0 -31 c0 -48 22 -63 94 -63 l63 0 32 268 c42
340 42 313 9 323 -62 17 -193 19 -248 3z m74 -201 c-15 -110 -36 -169 -75
-216 -62 -75 -115 -35 -107 81 9 122 85 219 174 221 21 1 21 0 8 -86z"/>
<path d="M4565 1011 c-156 -26 -266 -172 -266 -355 0 -133 57 -218 165 -247
82 -22 194 7 266 69 33 28 34 31 20 57 -8 15 -26 35 -39 43 -22 15 -27 15 -72
-11 -63 -35 -93 -34 -130 2 -25 26 -29 37 -29 88 0 75 22 141 61 180 36 37 66
44 116 27 56 -20 65 -18 108 26 l38 39 -32 30 c-47 44 -129 65 -206 52z"/>
<path d="M5680 1004 c-179 -49 -289 -196 -292 -387 0 -63 4 -86 24 -125 55
-110 190 -120 286 -21 l32 33 0 -31 c0 -48 22 -63 94 -63 l63 0 32 268 c42
340 42 313 9 323 -62 17 -193 19 -248 3z m74 -201 c-15 -110 -36 -169 -75
-216 -62 -75 -115 -35 -107 81 9 122 85 219 174 221 21 1 21 0 8 -86z"/>
<path d="M6223 1010 c-116 -24 -193 -116 -193 -232 0 -60 29 -129 65 -152 53
-35 139 -40 205 -12 13 5 15 -1 12 -34 l-4 -40 -77 0 c-86 0 -183 -21 -221
-49 -101 -73 -89 -194 25 -251 44 -22 62 -25 160 -25 100 0 115 3 161 27 67
35 110 88 125 153 10 45 9 58 -15 126 -14 42 -26 86 -26 98 0 12 14 54 30 93
17 40 30 88 30 112 0 39 3 43 34 54 24 9 38 22 45 44 23 66 21 68 -80 68 -50
0 -98 4 -107 9 -27 14 -123 20 -169 11z m85 -126 c17 -12 22 -25 22 -62 0 -57
-16 -91 -51 -111 -24 -13 -29 -13 -53 2 -23 15 -26 24 -26 73 0 48 4 59 29 85
34 33 47 35 79 13z m-4 -450 c35 -13 4 -76 -46 -93 -53 -19 -96 -14 -124 14
-21 21 -23 28 -14 45 6 12 21 25 33 30 25 10 128 13 151 4z"/>
<path d="M6843 1010 c-100 -20 -186 -90 -231 -188 -34 -76 -43 -201 -17 -268
39 -102 109 -149 225 -148 96 0 166 24 224 75 l46 41 -26 34 c-32 42 -64 44
-125 9 -89 -50 -179 -18 -179 65 0 19 8 22 99 36 155 23 241 91 241 189 0 110
-119 182 -257 155z m80 -135 c36 -35 -19 -82 -115 -100 -34 -7 -36 -6 -31 15
3 12 23 40 43 61 40 42 77 51 103 24z"/>
<path d="M2485 990 c3 -11 37 -133 75 -272 l69 -251 -65 -113 c-35 -63 -64
-118 -64 -124 0 -6 31 -10 74 -10 56 0 79 4 94 17 16 14 402 752 402 769 0 2
-36 4 -79 4 -61 0 -83 -4 -98 -17 -11 -10 -48 -85 -83 -166 -34 -81 -65 -145
-68 -143 -2 3 -17 68 -33 146 -16 77 -33 149 -39 160 -9 18 -21 20 -101 20
-86 0 -90 -1 -84 -20z"/>
</g>
</svg>
